<svg id="Layer_1" data-name="Layer 1" xmlns="http://www.w3.org/2000/svg" viewBox="0 0 792 792"><defs><style>.cls-1{fill:#191919;}</style></defs><title>Final logo_DTSB</title><path class="cls-1" d="M582.87,378.62H423.69c-9.5,0-9.53,0-9.53-9.36q0-159.83,0-319.67c0-9.06.18-9.27,9-9.27q159.83,0,319.67,0c9.27,0,9.64.36,9.64,9.47q0,159.83,0,319.67c0,9-.2,9.16-9.1,9.16ZM582,78.55c-36.33,0-72.66.09-109-.1-5.55,0-7.72,1.43-7.62,7.32.31,18.49.25,37,0,55.47-.06,5.3,1.6,7.29,7.08,7.19,15.87-.28,31.76-.11,47.64-.09,9.39,0,9.42,0,9.42,9.34q0,86.15,0,172.29c0,9.23,0,9.25,9.49,9.25h83.54c9.59,0,9.6,0,9.6-9.83q0-86.15,0-172.29c0-8.62.14-8.74,8.75-8.76,16.54,0,33.07-.15,49.6.08,5,.07,6.9-1.51,6.83-6.7-.24-18.27-.36-36.56.06-54.82.15-6.58-1.75-8.56-8.42-8.5C653.3,78.71,617.63,78.55,582,78.55Z"/><path class="cls-1" d="M208.07,751.79H49.53c-10,0-10,0-10-9.58q0-159.53,0-319c0-9.44.08-9.54,9.38-9.54H368c9.6,0,9.87.28,9.87,9.9q0,159.19,0,318.39c0,9.6-.27,9.86-9.91,9.86Q288,751.81,208.07,751.79Zm-75.55-121.4H93.37c-10.77,0-11.25.9-9.89,11.65,4.45,35.25,25.3,56.39,58.09,66.33,39.2,11.87,79.11,11.61,118.51,1.78,37.28-9.3,63.72-30.7,68.49-71.67,2.57-22.14-.75-43-16.32-60.36-9.54-10.63-21.85-17-34.91-22.15-21.72-8.54-44.51-13.38-67-19.3-7.13-1.87-14.5-3.19-20.94-7.06-5-3-7.92-7.37-7.64-13.44s3.78-10,9.09-12.45,11.26-3.09,17.21-2.88c11.79.41,18.46,5.36,20.73,16.74.92,4.62,3,5.45,7,5.43,26.31-.1,52.63-.2,78.94.06,5.92.06,7-2.49,6.52-7.51-2.71-31.4-18.9-52.47-48.34-63.42-21.32-7.93-43.5-9.71-66-9.71-21.47,0-42.54,2.15-62.89,9.21-20.12,7-36.84,18.38-47.5,37.5-8.19,14.69-9.23,30.58-8.31,46.83,1,17,7,31.66,19.91,43.2,9.11,8.17,20,13.12,31.45,16.67,18.07,5.57,36.26,10.73,54.37,16.15,9,2.68,18.08,5,26.72,8.45,14,5.62,16.79,20.08,6.16,30.58-8.3,8.21-18.7,8.63-29.25,5.75-9.76-2.67-14.64-10.12-15.54-19.68-.53-5.55-2.74-6.86-7.76-6.78C160.35,630.54,146.43,630.39,132.52,630.39Z"/><path class="cls-1" d="M751.29,582.07q0,79.62,0,159.23c0,9-.15,9.16-9.08,9.16H423.08c-8.6,0-8.87-.26-8.87-8.73q0-159.88-.12-319.78c0-6.56,2-8.58,8.56-8.57q159.89.25,319.78.13c8.82,0,8.85.05,8.86,9.32Q751.31,502.45,751.29,582.07Zm-95.18-4.62c0-.46,0-.91,0-1.37,3.26-1.12,6.55-2.14,9.76-3.36,13.59-5.18,25.25-12.72,31.75-26.41,5.1-10.76,5.78-22.28,5-33.84-1.6-22.93-11.68-40.47-33-50.91-16.75-8.2-34.78-9.51-52.76-9.7-48.05-.49-96.11-.18-144.16-.16-8.57,0-8.68.11-8.68,8.8q0,122.31,0,244.61c0,8.52.11,8.61,8.88,8.61,45.22,0,90.45.18,135.67-.11a177.93,177.93,0,0,0,38.17-4c39.25-8.87,64.52-34.32,62.76-74.35-1.14-25.71-15.33-45.83-39.77-54C665.23,579.8,660.64,578.71,656.11,577.45Z"/><path class="cls-1" d="M208.71,377.26H48.88c-9,0-9.18-.17-9.18-9.06q0-159.49,0-319c0-8.82.18-9,9.26-9H368c9.45,0,9.73.27,9.73,10q0,158.52,0,317c0,9.69-.29,10-9.81,10ZM80.32,208c0,40.88.13,81.76-.13,122.64,0,6.56,1.89,8.59,8.51,8.55,39.57-.27,79.15-.12,118.72-.15a172.63,172.63,0,0,0,39.46-4.15c45.48-10.69,76.48-37.38,88.76-83.19,9.18-34.26,7.14-68.59-4.17-102.08-8.66-25.67-25.71-44.64-50-56.73A138.94,138.94,0,0,0,221,78.47C176.69,77.85,132.33,78.25,88,78c-6.12,0-7.76,2.27-7.74,8.07C80.41,126.72,80.33,167.38,80.32,208Z"/></svg>